PathFileType	4	(X/Y/Z)	output.trc
DataRate	CameraRate	NumFrames	NumMarkers	Units	OrigDataRate	OrigDataStartFrame	OrigNumFrames
100	100	16	23	m	100	1	3753
Frame#	Time	C7			T8			EL			EM			US			RS			AA			Fore_Clus_1			Fore_Clus_2			Fore_Clus_3			Fore_Clus_4			Hum_Clus_1			Hum_Clus_2			Hum_Clus_3			Hum_Clus_4			Thor_Clus_1			Thor_Clus_2			Thor_Clus_3			Thor_Clus_4			IJ			PX			GH			Thor_Clus_5		
		X1	Y1	Z1	X2	Y2	Z2	X3	Y3	Z3	X4	Y4	Z4	X5	Y5	Z5	X6	Y6	Z6	X7	Y7	Z7	X8	Y8	Z8	X9	Y9	Z9	X10	Y10	Z10	X11	Y11	Z11	X12	Y12	Z12	X13	Y13	Z13	X14	Y14	Z14	X15	Y15	Z15	X16	Y16	Z16	X17	Y17	Z17	X18	Y18	Z18	X19	Y19	Z19	X20	Y20	Z20	X21	Y21	Z21	X22	Y22	Z22	X23	Y23	Z23
0	0.000000	-0.022697	1.577035	-0.040633	-0.033639	1.335920	-0.094737	-0.254136	1.182010	0.097964	-0.198025	1.168548	0.046909	-0.223592	0.911908	0.168725	-0.160247	0.920777	0.182885	-0.196581	1.501861	0.053068	-0.232761	0.967747	0.192537	-0.226501	0.915902	0.207421	-0.200546	0.921694	0.217046	-0.191899	0.978176	0.208387	-0.235290	1.293017	0.150741	-0.267687	1.301044	0.100579	-0.272451	1.364398	0.100971	-0.234581	1.367117	0.145906	0.101355	1.466134	0.117201	0.054253	1.416555	0.166695	0.061809	1.465997	0.137265	0.111862	1.416975	0.137598	0.041302	1.497921	0.077482	0.065570	1.314199	0.123609	-0.162960	1.481457	0.071445	0.049503	1.438573	0.157180
1	0.010000	-0.022699	1.577020	-0.040646	-0.033631	1.335919	-0.094811	-0.254152	1.181959	0.097811	-0.198003	1.168505	0.046795	-0.223588	0.911825	0.168516	-0.160262	0.920699	0.182756	-0.196586	1.501817	0.053026	-0.232811	0.967662	0.192333	-0.226532	0.915826	0.207221	-0.200602	0.921584	0.216843	-0.191972	0.978116	0.208224	-0.235344	1.292964	0.150593	-0.267714	1.300975	0.100414	-0.272477	1.364331	0.100811	-0.234624	1.367055	0.145752	0.101661	1.466400	0.117749	0.054262	1.416506	0.166639	0.061844	1.465860	0.137108	0.111858	1.416902	0.137545	0.041296	1.497878	0.077453	0.065566	1.314145	0.123535	-0.162975	1.481414	0.071380	0.049491	1.438532	0.157114
2	0.020000	-0.022741	1.576961	-0.040677	-0.033645	1.335861	-0.094857	-0.254166	1.181908	0.097656	-0.197979	1.168462	0.046679	-0.223583	0.911743	0.168308	-0.160275	0.920625	0.182625	-0.196615	1.501730	0.052998	-0.232862	0.967585	0.192163	-0.226588	0.915718	0.207038	-0.200678	0.921485	0.216657	-0.192046	0.978012	0.208051	-0.235417	1.292888	0.150443	-0.267748	1.300889	0.100252	-0.272520	1.364250	0.100637	-0.234711	1.366972	0.145624	0.101655	1.466338	0.117648	0.054245	1.416438	0.166601	0.061824	1.465835	0.137089	0.111844	1.416855	0.137503	0.041269	1.497819	0.077414	0.065563	1.314086	0.123484	-0.162995	1.481372	0.071313	0.049442	1.438576	0.156873
3	0.030000	-0.022818	1.576860	-0.040727	-0.033684	1.335752	-0.094875	-0.254181	1.181856	0.097500	-0.197956	1.168419	0.046563	-0.223578	0.911666	0.168100	-0.160287	0.920558	0.182490	-0.196663	1.501608	0.052983	-0.232902	0.967519	0.191991	-0.226624	0.915630	0.206831	-0.200771	0.921407	0.216465	-0.192103	0.977929	0.207890	-0.235481	1.292817	0.150293	-0.267783	1.300811	0.100087	-0.272560	1.364182	0.100459	-0.234774	1.366911	0.145485	0.101667	1.466293	0.117687	0.054227	1.416390	0.166557	0.061868	1.465727	0.137106	0.111832	1.416804	0.137456	0.041224	1.497745	0.077365	0.065560	1.314022	0.123454	-0.163019	1.481330	0.071246	0.049455	1.438463	0.156946
4	0.040000	-0.022926	1.576720	-0.040794	-0.033747	1.335592	-0.094867	-0.254195	1.181804	0.097345	-0.197933	1.168378	0.046447	-0.223574	0.911595	0.167894	-0.160300	0.920497	0.182350	-0.196731	1.501454	0.052981	-0.232956	0.967429	0.191822	-0.226681	0.915532	0.206643	-0.200771	0.921246	0.216300	-0.192164	0.977835	0.207736	-0.235566	1.292720	0.150125	-0.267816	1.300737	0.099940	-0.272583	1.364103	0.100296	-0.234877	1.366852	0.145341	0.101657	1.466228	0.117709	0.054205	1.416335	0.166516	0.061902	1.465612	0.137136	0.111801	1.416753	0.137423	0.041163	1.497657	0.077306	0.065556	1.313953	0.123445	-0.163045	1.481290	0.071180	0.049442	1.438307	0.156968
5	0.050000	-0.023062	1.576544	-0.040879	-0.033834	1.335388	-0.094833	-0.254208	1.181754	0.097193	-0.197910	1.168338	0.046331	-0.223576	0.911527	0.167692	-0.160317	0.920440	0.182204	-0.196814	1.501274	0.052990	-0.233009	0.967368	0.191651	-0.226724	0.915481	0.206449	-0.201261	0.921638	0.216258	-0.192223	0.977770	0.207580	-0.235644	1.292656	0.149988	-0.267848	1.300691	0.099759	-0.272616	1.364044	0.100127	-0.234958	1.366792	0.145206	0.101609	1.466145	0.117611	0.054172	1.416300	0.166471	0.061847	1.465562	0.137048	0.111768	1.416705	0.137375	0.041089	1.497555	0.077237	0.065549	1.313881	0.123455	-0.163073	1.481252	0.071118	0.049618	1.438175	0.157073
6	0.060000	-0.023216	1.576343	-0.040978	-0.033943	1.335151	-0.094779	-0.254221	1.181705	0.097045	-0.197891	1.168301	0.046215	-0.223581	0.911466	0.167491	-0.160334	0.920390	0.182051	-0.196908	1.501084	0.053009	-0.233071	0.967295	0.191482	-0.226802	0.915429	0.206271	-0.200884	0.921122	0.215981	-0.192279	0.977675	0.207421	-0.235700	1.292603	0.149844	-0.267877	1.300639	0.099619	-0.272643	1.363986	0.099990	-0.235023	1.366733	0.145087	0.101556	1.466098	0.117557	0.054140	1.416265	0.166443	0.061791	1.465527	0.136994	0.111734	1.416666	0.137351	0.041006	1.497445	0.077160	0.065536	1.313806	0.123481	-0.163101	1.481215	0.071059	0.049580	1.438123	0.157042
7	0.070000	-0.023384	1.576122	-0.041090	-0.034072	1.334887	-0.094707	-0.254232	1.181657	0.096901	-0.197874	1.168266	0.046101	-0.223593	0.911408	0.167297	-0.160356	0.920341	0.181892	-0.197011	1.500885	0.053037	-0.233129	0.967238	0.191316	-0.226847	0.915380	0.206073	-0.201131	0.921264	0.215877	-0.192326	0.977619	0.207268	-0.235753	1.292556	0.149740	-0.267882	1.300601	0.099465	-0.272676	1.363945	0.099858	-0.235079	1.366673	0.144980	0.101562	1.466085	0.117574	0.054086	1.416233	0.166385	0.061767	1.465491	0.136952	0.111688	1.416629	0.137313	0.040916	1.497328	0.077076	0.065517	1.313730	0.123521	-0.163131	1.481181	0.071007	0.049554	1.438088	0.156985
8	0.080000	-0.023556	1.575893	-0.041208	-0.034219	1.334612	-0.094624	-0.254243	1.181611	0.096765	-0.197860	1.168234	0.045987	-0.223612	0.911354	0.167108	-0.160381	0.920294	0.181728	-0.197116	1.500694	0.053072	-0.233179	0.967195	0.191156	-0.226893	0.915335	0.205912	-0.201187	0.921227	0.215632	-0.192357	0.977554	0.207113	-0.235793	1.292519	0.149643	-0.267908	1.300567	0.099349	-0.272691	1.363902	0.099745	-0.235136	1.366626	0.144884	0.101302	1.465861	0.117111	0.054045	1.416202	0.166335	0.061704	1.465449	0.136871	0.111656	1.416592	0.137243	0.040825	1.497209	0.076987	0.065491	1.313654	0.123568	-0.163160	1.481148	0.070961	0.049486	1.438060	0.156936
9	0.090000	-0.023726	1.575665	-0.041330	-0.034381	1.334337	-0.094535	-0.254253	1.181566	0.096635	-0.197850	1.168205	0.045876	-0.223636	0.911302	0.166925	-0.160410	0.920249	0.181559	-0.197220	1.500519	0.053113	-0.233215	0.967156	0.190996	-0.226895	0.915246	0.205621	-0.200919	0.920916	0.215303	-0.192421	0.977510	0.206952	-0.235816	1.292491	0.149561	-0.267935	1.300544	0.099236	-0.272719	1.363866	0.099648	-0.235180	1.366594	0.144801	0.101081	1.465632	0.116699	0.054001	1.416180	0.166285	0.061730	1.465438	0.136855	0.111615	1.416535	0.137168	0.040735	1.497092	0.076896	0.065457	1.313580	0.123618	-0.163188	1.481117	0.070923	0.049457	1.438025	0.156881
10	0.100000	-0.023889	1.575446	-0.041450	-0.034553	1.334072	-0.094444	-0.254262	1.181523	0.096513	-0.197843	1.168178	0.045767	-0.223667	0.911250	0.166749	-0.160442	0.920199	0.181388	-0.197321	1.500364	0.053159	-0.233244	0.967111	0.190838	-0.226922	0.915175	0.205419	-0.200982	0.920896	0.215160	-0.192461	0.977457	0.206806	-0.235835	1.292458	0.149483	-0.267957	1.300514	0.099141	-0.272757	1.363836	0.099579	-0.235215	1.366554	0.144734	0.101068	1.465615	0.116685	0.053963	1.416139	0.166230	0.061293	1.465153	0.136533	0.111586	1.416500	0.137119	0.040648	1.496979	0.076804	0.065415	1.313510	0.123668	-0.163216	1.481088	0.070893	0.049418	1.437981	0.156820
11	0.110000	-0.024036	1.575247	-0.041565	-0.034733	1.333830	-0.094357	-0.254270	1.181481	0.096400	-0.197841	1.168153	0.045660	-0.223702	0.911200	0.166579	-0.160477	0.920150	0.181216	-0.197413	1.500242	0.053207	-0.233263	0.967063	0.190674	-0.226951	0.915120	0.205275	-0.200986	0.920829	0.214980	-0.192484	0.977413	0.206660	-0.235846	1.292424	0.149420	-0.267966	1.300490	0.099067	-0.272768	1.363804	0.099522	-0.235231	1.366516	0.144692	0.101035	1.465574	0.116620	0.053923	1.416112	0.166155	0.061227	1.465100	0.136466	0.111528	1.416440	0.137040	0.040570	1.496876	0.076715	0.065363	1.313444	0.123713	-0.163242	1.481059	0.070871	0.049369	1.437947	0.156763
12	0.120000	-0.024169	1.575071	-0.041671	-0.034915	1.333616	-0.094278	-0.254276	1.181440	0.096294	-0.197841	1.168129	0.045557	-0.223742	0.911146	0.166418	-0.160514	0.920094	0.181047	-0.197496	1.500150	0.053256	-0.233278	0.967006	0.190513	-0.226982	0.915079	0.205140	-0.201014	0.920790	0.214845	-0.192518	0.977357	0.206518	-0.235853	1.292389	0.149366	-0.267984	1.300465	0.099012	-0.272789	1.363786	0.099493	-0.235241	1.366480	0.144651	0.100997	1.465494	0.116587	0.053886	1.416076	0.166105	0.061202	1.465071	0.136402	0.111499	1.416407	0.136986	0.040500	1.496782	0.076629	0.065305	1.313383	0.123749	-0.163268	1.481032	0.070856	0.049275	1.437950	0.156660
13	0.130000	-0.024280	1.574924	-0.041766	-0.035095	1.333438	-0.094211	-0.254282	1.181399	0.096197	-0.197845	1.168106	0.045457	-0.223783	0.911090	0.166264	-0.160553	0.920034	0.180881	-0.197568	1.500094	0.053305	-0.233299	0.966933	0.190343	-0.227016	0.915016	0.205010	-0.201030	0.920718	0.214644	-0.192548	0.977300	0.206390	-0.235857	1.292339	0.149319	-0.267999	1.300429	0.098964	-0.272804	1.363750	0.099472	-0.235248	1.366438	0.144619	0.100934	1.465423	0.116511	0.053859	1.416017	0.166035	0.061085	1.464971	0.136303	0.111453	1.416364	0.136935	0.040440	1.496701	0.076550	0.065241	1.313328	0.123774	-0.163292	1.481003	0.070847	0.049241	1.437892	0.156612
14	0.140000	-0.024372	1.574809	-0.041846	-0.035270	1.333298	-0.094159	-0.254288	1.181357	0.096107	-0.197853	1.168084	0.045361	-0.223826	0.911031	0.166116	-0.160592	0.919971	0.180722	-0.197629	1.500069	0.053352	-0.233329	0.966846	0.190177	-0.227049	0.914940	0.204851	-0.201055	0.920650	0.214488	-0.192593	0.977217	0.206256	-0.235860	1.292289	0.149271	-0.268002	1.300396	0.098921	-0.272823	1.363703	0.099445	-0.235258	1.366386	0.144597	0.100881	1.465352	0.116431	0.053813	1.416098	0.166067	0.061549	1.465254	0.136545	0.111433	1.416323	0.136890	0.040391	1.496633	0.076477	0.065173	1.313279	0.123785	-0.163315	1.480975	0.070845	0.049218	1.437846	0.156554
15	0.150000	-0.024446	1.574724	-0.041912	-0.035434	1.333195	-0.094124	-0.254293	1.181315	0.096025	-0.197862	1.168060	0.045269	-0.223869	0.910967	0.165977	-0.160632	0.919900	0.180571	-0.197679	1.500070	0.053396	-0.233339	0.966746	0.190019	-0.227085	0.914857	0.204711	-0.201092	0.920602	0.214369	-0.192624	0.977154	0.206127	-0.235860	1.292219	0.149219	-0.268062	1.300344	0.098870	-0.272844	1.363653	0.099424	-0.235265	1.366329	0.144573	0.100853	1.465311	0.116383	0.053778	1.416092	0.166040	0.061099	1.464947	0.136242	0.111408	1.416267	0.136820	0.040350	1.496577	0.076412	0.065104	1.313236	0.123782	-0.163338	1.480945	0.070847	0.049207	1.437795	0.156497
